<svg width="24" height="24" viewBox="0 0 24 24" fill="none" xmlns="http://www.w3.org/2000/svg">
<path d="M8.8712 19.4393C7.7786 19.4393 6.85554 19.1285 6.10202 18.5068C5.36734 17.8852 5 16.9904 5 15.8224C5 14.937 5.45211 14.127 6.35633 13.3923C7.26056 12.6388 8.68282 12.0737 10.6231 11.6969C10.9245 11.6404 11.2636 11.5839 11.6404 11.5274C12.0171 11.452 12.4127 11.3766 12.8272 11.3013V9.069C12.8272 7.78802 12.667 6.89321 12.3468 6.38459C12.0454 5.85713 11.565 5.5934 10.9057 5.5934C10.4536 5.5934 10.0957 5.7441 9.83194 6.04551C9.56821 6.32808 9.39866 6.82728 9.32331 7.54312L9.2668 7.85395C9.22912 8.66398 9.03132 9.25738 8.6734 9.63414C8.31548 10.0109 7.87279 10.1993 7.34533 10.1993C6.85554 10.1993 6.45052 10.0486 6.13028 9.74717C5.81003 9.44576 5.64991 9.04074 5.64991 8.53212C5.64991 7.75976 5.91364 7.10985 6.4411 6.58239C6.9874 6.05493 7.70325 5.65933 8.58863 5.3956C9.47402 5.13187 10.4348 5 11.4708 5C13.1474 5 14.4378 5.41443 15.342 6.24331C16.2651 7.05334 16.7266 8.38141 16.7266 10.2275V16.4723C16.7266 17.32 17.1222 17.7439 17.9134 17.7439H18.5351L18.7894 17.9699C18.4315 18.422 18.0359 18.7705 17.6026 19.0154C17.1882 19.2603 16.5948 19.3828 15.8224 19.3828C14.9935 19.3828 14.3342 19.1944 13.8444 18.8176C13.3735 18.422 13.0626 17.904 12.9119 17.2635C12.3468 17.8663 11.7628 18.3844 11.16 18.8176C10.576 19.2321 9.8131 19.4393 8.8712 19.4393ZM10.5949 17.7156C10.9716 17.7156 11.3201 17.6309 11.6404 17.4613C11.9795 17.2729 12.3751 16.9904 12.8272 16.6136V11.8664C12.6388 11.9041 12.4504 11.9418 12.262 11.9795C12.0737 12.0171 11.857 12.0548 11.6121 12.0925C10.7456 12.3185 10.0486 12.7047 9.52111 13.251C9.01249 13.7785 8.75817 14.4943 8.75817 15.3986C8.75817 16.1709 8.93713 16.7549 9.29506 17.1505C9.65298 17.5272 10.0862 17.7156 10.5949 17.7156Z" fill="#F59E0B"/>
</svg>
