<svg width="150" height="30" viewBox="0 0 150 30" fill="none" xmlns="http://www.w3.org/2000/svg">
<path d="M136.209 25C135.286 25 134.457 24.8869 133.722 24.6609C132.987 24.4537 132.309 24.1899 131.687 23.8697L131.716 20.5071H131.998L132.959 22.2025C133.373 22.956 133.826 23.5212 134.315 23.8979C134.824 24.2559 135.465 24.4348 136.237 24.4348C137.141 24.4348 137.866 24.237 138.413 23.8414C138.978 23.427 139.26 22.8807 139.26 22.2025C139.26 21.5809 139.063 21.0723 138.667 20.6767C138.271 20.2811 137.537 19.9231 136.463 19.6029L135.276 19.2356C134.127 18.8965 133.223 18.369 132.563 17.6532C131.904 16.9373 131.574 16.0614 131.574 15.0253C131.574 13.782 132.064 12.727 133.044 11.8605C134.023 10.9939 135.427 10.5607 137.254 10.5607C137.989 10.5607 138.676 10.6454 139.317 10.815C139.976 10.9657 140.607 11.2012 141.21 11.5214L141.041 14.5732H140.758L139.769 12.8212C139.411 12.1996 139.053 11.7663 138.695 11.5214C138.356 11.2577 137.838 11.1258 137.141 11.1258C136.501 11.1258 135.898 11.3048 135.333 11.6627C134.767 12.0206 134.485 12.5292 134.485 13.1886C134.485 13.8291 134.72 14.3377 135.191 14.7144C135.681 15.0912 136.397 15.4397 137.339 15.7599L138.61 16.1273C139.967 16.5417 140.937 17.1163 141.521 17.851C142.105 18.5668 142.397 19.4333 142.397 20.4506C142.397 21.8258 141.851 22.9278 140.758 23.7567C139.684 24.5855 138.168 25 136.209 25Z" fill="white"/>
<path d="M124.091 10.5607C125.315 10.5607 126.361 10.815 127.227 11.3236C128.094 11.8134 128.753 12.4916 129.205 13.3581C129.676 14.2058 129.912 15.176 129.912 16.2686C129.912 16.4758 129.902 16.6924 129.884 16.9185C129.865 17.1257 129.827 17.3141 129.771 17.4836H121.35C121.369 19.5181 121.727 20.9875 122.424 21.8917C123.14 22.7771 124.195 23.2198 125.589 23.2198C126.53 23.2198 127.293 23.0691 127.877 22.7677C128.461 22.4663 129.008 22.0236 129.516 21.4396L129.799 21.6939C129.215 22.73 128.433 23.54 127.453 24.124C126.493 24.708 125.334 25 123.978 25C122.64 25 121.454 24.7174 120.418 24.1523C119.381 23.5683 118.571 22.7394 117.987 21.6656C117.403 20.5919 117.111 19.3109 117.111 17.8227C117.111 16.278 117.451 14.9688 118.129 13.895C118.807 12.8024 119.673 11.9735 120.728 11.4084C121.802 10.8432 122.923 10.5607 124.091 10.5607ZM124.006 11.1258C123.46 11.1258 122.989 11.2953 122.593 11.6344C122.217 11.9547 121.915 12.5387 121.689 13.3864C121.482 14.2152 121.369 15.3926 121.35 16.9185H126.182C126.37 14.8651 126.295 13.3864 125.956 12.4821C125.617 11.5779 124.967 11.1258 124.006 11.1258Z" fill="white"/>
<path d="M106.763 25C105.652 25 104.653 24.7551 103.768 24.2654C102.883 23.7567 102.176 22.9844 101.649 21.9483C101.14 20.8934 100.886 19.5464 100.886 17.9075C100.886 16.2498 101.178 14.8841 101.762 13.8103C102.346 12.7177 103.118 11.9077 104.079 11.3802C105.04 10.8339 106.085 10.5607 107.215 10.5607C107.875 10.5607 108.506 10.6267 109.109 10.7585C109.711 10.8904 110.248 11.0882 110.719 11.3519V7.67853C110.719 7.28293 110.653 6.99095 110.521 6.80257C110.408 6.61419 110.154 6.48232 109.758 6.40697L109.222 6.29394V6.01137L114.364 4.76807L114.675 5.02238L114.562 8.97835V22.796C114.562 23.1728 114.628 23.4836 114.76 23.7285C114.892 23.9545 115.137 24.1147 115.495 24.2088L115.749 24.2936V24.5762L110.917 24.887L110.663 23.8698C110.154 24.2088 109.57 24.482 108.911 24.6892C108.27 24.8964 107.554 25 106.763 25ZM108.402 23.9545C109.193 23.9545 109.919 23.7191 110.578 23.2481V12.0301C109.881 11.578 109.165 11.3519 108.43 11.3519C107.526 11.3519 106.754 11.8794 106.113 12.9343C105.473 13.9704 105.153 15.6093 105.153 17.851C105.153 20.0927 105.454 21.6751 106.057 22.5982C106.66 23.5024 107.441 23.9545 108.402 23.9545Z" fill="white"/>
<path d="M92.3584 25C90.9267 25 89.6834 24.708 88.6285 24.124C87.5735 23.5212 86.7541 22.6735 86.1701 21.5809C85.605 20.4883 85.3224 19.2073 85.3224 17.7379C85.3224 16.2686 85.6238 14.997 86.2266 13.9232C86.8483 12.8495 87.6866 12.0206 88.7415 11.4366C89.8152 10.8527 91.0209 10.5607 92.3584 10.5607C93.6959 10.5607 94.8921 10.8527 95.947 11.4366C97.0019 12.0018 97.8308 12.8212 98.4336 13.895C99.0553 14.9688 99.3661 16.2497 99.3661 17.7379C99.3661 19.2261 99.0741 20.5165 98.4901 21.6091C97.925 22.6829 97.115 23.5212 96.06 24.124C95.0239 24.708 93.7901 25 92.3584 25ZM92.3584 24.4348C93.0177 24.4348 93.5452 24.2464 93.9408 23.8697C94.3364 23.4929 94.6189 22.8242 94.7885 21.8634C94.9768 20.9027 95.071 19.5464 95.071 17.7944C95.071 16.0237 94.9768 14.6579 94.7885 13.6972C94.6189 12.7365 94.3364 12.0677 93.9408 11.6909C93.5452 11.3142 93.0177 11.1258 92.3584 11.1258C91.699 11.1258 91.1622 11.3142 90.7477 11.6909C90.3521 12.0677 90.0601 12.7365 89.8718 13.6972C89.7022 14.6579 89.6174 16.0237 89.6174 17.7944C89.6174 19.5464 89.7022 20.9027 89.8718 21.8634C90.0601 22.8242 90.3521 23.4929 90.7477 23.8697C91.1622 24.2464 91.699 24.4348 92.3584 24.4348Z" fill="white"/>
<path d="M78.4201 25C77.1391 25 75.9712 24.7268 74.9162 24.1805C73.8801 23.6154 73.0513 22.8053 72.4296 21.7504C71.8268 20.6767 71.5254 19.3674 71.5254 17.8227C71.5254 16.2968 71.8551 14.997 72.5144 13.9232C73.1926 12.8306 74.0874 12.0018 75.1988 11.4366C76.3291 10.8527 77.563 10.5607 78.9005 10.5607C79.9931 10.5607 80.9161 10.7396 81.6696 11.0976C82.4232 11.4555 82.9977 11.9264 83.3933 12.5104C83.7889 13.0755 83.9867 13.6689 83.9867 14.2906C83.9867 14.818 83.8266 15.2325 83.5063 15.5339C83.1861 15.8165 82.7717 15.9577 82.263 15.9577C81.7167 15.9577 81.274 15.7599 80.935 15.3643C80.5959 14.9688 80.3981 14.4507 80.3416 13.8102C80.3227 13.3958 80.3321 13.0473 80.3698 12.7647C80.4075 12.4633 80.4075 12.1619 80.3698 11.8605C80.2945 11.5402 80.172 11.333 80.0025 11.2388C79.8518 11.1258 79.6351 11.0693 79.3526 11.0693C78.2034 11.0693 77.3086 11.5685 76.6682 12.5669C76.0465 13.5653 75.7357 15.1571 75.7357 17.3423C75.7357 19.245 76.0842 20.7049 76.7812 21.7222C77.497 22.7206 78.5896 23.2198 80.059 23.2198C80.9444 23.2198 81.6602 23.0597 82.2065 22.7394C82.7528 22.4192 83.2803 21.9388 83.7889 21.2983L84.0715 21.5244C83.6005 22.6358 82.8753 23.4929 81.8957 24.0957C80.9161 24.6986 79.7576 25 78.4201 25Z" fill="white"/>
<path d="M67.304 25C66.6258 25 66.0513 24.7645 65.5803 24.2935C65.1094 23.8226 64.8739 23.2575 64.8739 22.5981C64.8739 21.9388 65.1094 21.3642 65.5803 20.8744C66.0513 20.3847 66.6258 20.1398 67.304 20.1398C67.9822 20.1398 68.5567 20.3847 69.0277 20.8744C69.4986 21.3642 69.7341 21.9388 69.7341 22.5981C69.7341 23.2575 69.4986 23.8226 69.0277 24.2935C68.5567 24.7645 67.9822 25 67.304 25Z" fill="#F59E0B"/>
<path d="M55.9337 25C54.502 25 53.2587 24.708 52.2038 24.124C51.1488 23.5212 50.3294 22.6735 49.7454 21.5809C49.1803 20.4883 48.8977 19.2073 48.8977 17.7379C48.8977 16.2686 49.1991 14.997 49.8019 13.9232C50.4236 12.8495 51.2619 12.0206 52.3168 11.4366C53.3906 10.8527 54.5962 10.5607 55.9337 10.5607C57.2712 10.5607 58.4674 10.8527 59.5223 11.4366C60.5772 12.0018 61.4061 12.8212 62.0089 13.895C62.6306 14.9688 62.9414 16.2497 62.9414 17.7379C62.9414 19.2261 62.6494 20.5165 62.0654 21.6091C61.5003 22.6829 60.6903 23.5212 59.6353 24.124C58.5993 24.708 57.3654 25 55.9337 25ZM55.9337 24.4348C56.593 24.4348 57.1205 24.2464 57.5161 23.8697C57.9117 23.4929 58.1942 22.8242 58.3638 21.8634C58.5522 20.9027 58.6463 19.5464 58.6463 17.7944C58.6463 16.0237 58.5522 14.6579 58.3638 13.6972C58.1942 12.7365 57.9117 12.0677 57.5161 11.6909C57.1205 11.3142 56.593 11.1258 55.9337 11.1258C55.2744 11.1258 54.7375 11.3142 54.323 11.6909C53.9274 12.0677 53.6355 12.7365 53.4471 13.6972C53.2775 14.6579 53.1928 16.0237 53.1928 17.7944C53.1928 19.5464 53.2775 20.9027 53.4471 21.8634C53.6355 22.8242 53.9274 23.4929 54.323 23.8697C54.7375 24.2464 55.2744 24.4348 55.9337 24.4348Z" fill="white"/>
<path d="M36.7532 24.5761V24.2935L37.177 24.1805C37.5538 24.0675 37.8081 23.8979 37.94 23.6719C38.0907 23.4458 38.166 23.1538 38.166 22.7959V13.9515C38.166 13.5371 38.0907 13.2357 37.94 13.0473C37.8081 12.8401 37.5538 12.6988 37.177 12.6234L36.7532 12.5104V12.2278L41.6134 10.5889L41.8959 10.8715L42.1503 13.3016V13.5276C42.414 13.0002 42.7531 12.5198 43.1675 12.0865C43.6008 11.6344 44.0717 11.2671 44.5803 10.9845C45.1078 10.702 45.6259 10.5607 46.1345 10.5607C46.8503 10.5607 47.3966 10.7585 47.7734 11.1541C48.1501 11.5497 48.3385 12.0489 48.3385 12.6517C48.3385 13.2922 48.1501 13.7914 47.7734 14.1493C47.4155 14.4884 46.9822 14.6579 46.4736 14.6579C45.6824 14.6579 44.9854 14.2623 44.3825 13.4711L44.326 13.4146C44.1377 13.1509 43.921 13.0096 43.6761 12.9908C43.4312 12.9531 43.2052 13.0661 42.998 13.3298C42.8096 13.4994 42.6495 13.7066 42.5176 13.9515C42.4046 14.1776 42.2915 14.4413 42.1785 14.7427V22.6264C42.1785 23.3799 42.5082 23.8509 43.1675 24.0392L44.0717 24.2935V24.5761H36.7532Z" fill="white"/>
<path d="M26.5182 25C25.4068 25 24.4083 24.7551 23.523 24.2654C22.6376 23.7567 21.9311 22.9844 21.4037 21.9483C20.8951 20.8934 20.6407 19.5464 20.6407 17.9075C20.6407 16.2498 20.9327 14.8841 21.5167 13.8103C22.1007 12.7177 22.873 11.9077 23.8338 11.3802C24.7945 10.8339 25.84 10.5607 26.9703 10.5607C27.6296 10.5607 28.2607 10.6267 28.8635 10.7585C29.4663 10.8904 30.0032 11.0882 30.4742 11.3519V7.67853C30.4742 7.28293 30.4082 6.99095 30.2764 6.80257C30.1633 6.61419 29.909 6.48232 29.5134 6.40697L28.9765 6.29394V6.01137L34.1193 4.76807L34.4301 5.02238L34.3171 8.97835V22.796C34.3171 23.1728 34.383 23.4836 34.5149 23.7285C34.6468 23.9545 34.8917 24.1147 35.2496 24.2088L35.5039 24.2936V24.5762L30.672 24.887L30.4176 23.8698C29.909 24.2088 29.325 24.482 28.6657 24.6892C28.0252 24.8964 27.3094 25 26.5182 25ZM28.1571 23.9545C28.9483 23.9545 29.6735 23.7191 30.3329 23.2481V12.0301C29.6359 11.578 28.92 11.3519 28.1854 11.3519C27.2811 11.3519 26.5088 11.8794 25.8683 12.9343C25.2278 13.9704 24.9075 15.6093 24.9075 17.851C24.9075 20.0927 25.209 21.6751 25.8118 22.5982C26.4146 23.5024 27.1964 23.9545 28.1571 23.9545Z" fill="white"/>
<path d="M10.0279 25C8.93534 25 8.01228 24.6891 7.25876 24.0675C6.52408 23.4458 6.15674 22.551 6.15674 21.3831C6.15674 20.4977 6.60885 19.6877 7.51307 18.953C8.41729 18.1995 9.83956 17.6343 11.7799 17.2576C12.0813 17.201 12.4204 17.1445 12.7971 17.088C13.1739 17.0127 13.5695 16.9373 13.9839 16.862V14.6297C13.9839 13.3487 13.8238 12.4539 13.5035 11.9453C13.2021 11.4178 12.7218 11.1541 12.0624 11.1541C11.6103 11.1541 11.2524 11.3048 10.9887 11.6062C10.7249 11.8887 10.5554 12.388 10.48 13.1038L10.4235 13.4146C10.3859 14.2247 10.1881 14.818 9.83014 15.1948C9.47222 15.5716 9.02953 15.7599 8.50206 15.7599C8.01228 15.7599 7.60726 15.6092 7.28702 15.3078C6.96677 15.0064 6.80665 14.6014 6.80665 14.0928C6.80665 13.3204 7.07038 12.6705 7.59784 12.1431C8.14414 11.6156 8.85999 11.22 9.74537 10.9563C10.6308 10.6925 11.5915 10.5607 12.6276 10.5607C14.3042 10.5607 15.5946 10.9751 16.4988 11.804C17.4218 12.614 17.8834 13.9421 17.8834 15.7882V22.033C17.8834 22.8807 18.279 23.3045 19.0702 23.3045H19.6918L19.9461 23.5306C19.5882 23.9827 19.1926 24.3312 18.7593 24.5761C18.3449 24.821 17.7515 24.9435 16.9791 24.9435C16.1503 24.9435 15.4909 24.7551 15.0012 24.3783C14.5302 23.9827 14.2194 23.4647 14.0687 22.8242C13.5035 23.427 12.9196 23.945 12.3168 24.3783C11.7328 24.7927 10.9698 25 10.0279 25ZM11.7516 23.2763C12.1284 23.2763 12.4769 23.1915 12.7971 23.022C13.1362 22.8336 13.5318 22.551 13.9839 22.1743V17.4271C13.7955 17.4648 13.6072 17.5025 13.4188 17.5401C13.2304 17.5778 13.0138 17.6155 12.7689 17.6532C11.9023 17.8792 11.2053 18.2654 10.6778 18.8117C10.1692 19.3392 9.91491 20.055 9.91491 20.9592C9.91491 21.7316 10.0939 22.3156 10.4518 22.7112C10.8097 23.0879 11.243 23.2763 11.7516 23.2763Z" fill="white"/>
</svg>
